<?xml version="1.0" encoding="utf-8"?>
<!-- Generator: Adobe Illustrator 22.1.0, SVG Export Plug-In . SVG Version: 6.00 Build 0)  -->
<svg version="1.1" id="Mode_Isolation" xmlns="http://www.w3.org/2000/svg" xmlns:xlink="http://www.w3.org/1999/xlink" x="0px"
	 y="0px" viewBox="1145.572 1191.685 1096.02 451.28" enable-background="new 1145.572 1191.685 1096.02 451.28"
	 xml:space="preserve">
<polygon fill="#FFD934" points="1378.705,1342.998 1378.705,1191.685 1281.649,1191.685 1281.649,1445.595 "/>
<path fill="#FFD934" d="M1499.912,1366.913l172.475-174.33h-121.165l-77.106,81.12l-192.467,203.455v12.495
	c0,7.833-0.31,15.976-0.927,24.419c-0.618,8.452-2.473,16.285-5.564,23.491c-3.09,7.216-8.142,13.089-15.146,17.619
	c-7.013,4.538-16.904,6.8-29.673,6.8c-9.951,0-18.284-1.387-25.014-4.144l-59.753,63.164c9.917,6.027,20.644,10.792,32.221,14.236
	c17.308,5.147,35.236,7.727,53.783,7.727c32.967,0,59.133-5.053,78.51-15.146c19.367-10.095,34.204-22.661,44.51-37.71
	c10.297-15.04,17.925-31.218,20.813-48.529c2.239-13.466,2.983-23.161,3.205-34.883l59.832-62.285l128.849,189.559h121.783
	L1499.912,1366.913z"/>
<g>
	<path fill="#FFFFFF" d="M1778.355,1634.393v-94.166h44.047c20.471,0,31.624,13.835,31.624,30.354
		c0,16.377-11.294,30.353-31.624,30.353h-24v33.459H1778.355z M1833.556,1570.581c0-7.906-5.929-12.706-13.836-12.706h-21.318
		v25.412h21.318C1827.626,1583.287,1833.556,1578.345,1833.556,1570.581z"/>
	<path fill="#FFFFFF" d="M1919.67,1634.393l-18.495-33.459h-14.682v33.459h-20.047v-94.166h44.047
		c19.624,0,31.624,12.847,31.624,30.354c0,16.659-10.447,25.553-20.612,27.953l21.176,35.859H1919.67z M1921.647,1570.581
		c0-7.906-6.071-12.706-14.118-12.706h-21.036v25.412h21.036C1915.576,1583.287,1921.647,1578.486,1921.647,1570.581z"/>
	<path fill="#FFFFFF" d="M1952.702,1587.381c0-28.377,20.753-48.707,49.13-48.707c28.519,0,49.271,20.33,49.271,48.707
		c0,28.377-20.753,48.707-49.271,48.707C1973.456,1636.088,1952.702,1615.758,1952.702,1587.381z M2030.492,1587.381
		c0-17.647-11.294-30.918-28.66-30.918c-17.365,0-28.518,13.271-28.518,30.918c0,17.506,11.153,30.918,28.518,30.918
		C2019.197,1618.299,2030.492,1604.887,2030.492,1587.381z"/>
	<path fill="#FFFFFF" d="M2065.218,1634.393v-94.166h37.13c29.506,0,49.977,18.777,49.977,47.154
		c0,28.377-20.471,47.012-49.977,47.012H2065.218z M2131.854,1587.381c0-16.659-10.165-29.507-29.506-29.507h-17.083v58.872h17.083
		C2120.983,1616.746,2131.854,1603.334,2131.854,1587.381z"/>
</g>
<rect x="1715.158" y="1463.868" display="none" fill="#FFFFFF" width="77.827" height="170.105"/>
<rect x="2205.673" y="1463.868" display="none" fill="#FFFFFF" width="77.827" height="170.105"/>
<rect x="1720.76" y="1608.235" fill="#FFD934" width="25.512" height="25.512"/>
</svg>
