<?xml version="1.0" encoding="utf-8"?>
<!-- Generator: Adobe Illustrator 22.1.0, SVG Export Plug-In . SVG Version: 6.00 Build 0)  -->
<svg version="1.1" id="Layer_1" xmlns="http://www.w3.org/2000/svg" xmlns:xlink="http://www.w3.org/1999/xlink" x="0px" y="0px"
	 viewBox="0 0 100 100" style="enable-background:new 0 0 100 100;" xml:space="preserve">
<style type="text/css">
	.st0{display:none;}
	.st1{display:inline;}
	.st2{fill:none;}
	.st3{fill:#FFFFFF;}
</style>
<g id="play" class="st0">
	<g class="st1">
		<g>
			<g>
				<polygon class="st2" points="35.2,85.4 32.8,82.2 77.5,48 21.9,9.8 21.9,75.2 17.9,75.2 17.9,2.2 84.3,47.9 				"/>
				<polyline class="st2" points="19.9,75.2 19.9,6 80.9,48 34,83.8 				"/>
				<path d="M34,86.8c-0.9,0-1.8-0.4-2.4-1.2c-1-1.3-0.8-3.2,0.6-4.2l43.6-33.4L22.9,11.7v63.5c0,1.7-1.3,3-3,3s-3-1.3-3-3V6
					c0-1.1,0.6-2.1,1.6-2.7C18.9,3.1,19.4,3,19.9,3c0.6,0,1.2,0.2,1.7,0.5l61,42c0.8,0.5,1.3,1.4,1.3,2.4c0,1-0.4,1.9-1.2,2.5
					L35.8,86.2C35.3,86.6,34.7,86.8,34,86.8z"/>
				<path d="M34,84.8c-0.3,0-0.6-0.1-0.8-0.4C32.9,84,33,83.4,33.4,83l45.8-35L20.9,7.9v67.3c0,0.6-0.4,1-1,1s-1-0.4-1-1V6
					c0-0.4,0.2-0.7,0.5-0.9c0.3-0.2,0.7-0.1,1,0.1l61,42c0.3,0.2,0.4,0.5,0.4,0.8c0,0.3-0.1,0.6-0.4,0.8L34.6,84.6
					C34.4,84.8,34.2,84.8,34,84.8z"/>
			</g>
			<path d="M19.9,97c-2.1,0-3.8-1.7-3.8-3.8s1.7-3.8,3.8-3.8s3.8,1.7,3.8,3.8S22,97,19.9,97z"/>
			<circle cx="19.9" cy="93.2" r="1.8"/>
		</g>
	</g>
</g>
<path class="st3" d="M50,88.3C24.5,88.3,3.7,71.1,3.7,50S24.5,11.7,50,11.7S96.3,28.9,96.3,50c0,6.7-2.1,13.2-6,19
	c-0.9,1.3-2.4,2.1-3.9,2.1c-1,0-1.9-0.3-2.7-0.8c-2.2-1.5-2.7-4.5-1.2-6.6c2.9-4.2,4.4-8.8,4.4-13.6c0-15.9-16.5-28.8-36.7-28.8
	c-20.3,0-36.7,12.9-36.7,28.8S29.7,78.8,50,78.8c4.9,0,9.6-0.7,14.1-2.2c0.5-0.2,1-0.2,1.5-0.2c2.1,0,3.9,1.3,4.5,3.3
	c0.8,2.5-0.5,5.2-3,6C61.7,87.4,55.9,88.3,50,88.3z"/>
<path class="st3" d="M84.8,88.3c-2.1,0-3.8-1.7-3.8-3.8s1.7-3.8,3.8-3.8s3.8,1.7,3.8,3.8S86.9,88.3,84.8,88.3z"/>
</svg>
