<?xml version="1.0" encoding="utf-8"?>
<!-- Generator: Adobe Illustrator 22.1.0, SVG Export Plug-In . SVG Version: 6.00 Build 0)  -->
<svg version="1.1" id="play" xmlns="http://www.w3.org/2000/svg" xmlns:xlink="http://www.w3.org/1999/xlink" x="0px" y="0px"
	 viewBox="0 0 100 100" enable-background="new 0 0 100 100" xml:space="preserve">
<g>
	<g>
		<g>
			<polygon fill="none" points="35.233,85.419 32.803,82.241 77.509,48.045 21.912,9.766 21.912,75.211 17.912,75.211 17.912,2.155 
				84.315,47.875 			"/>
			<polyline fill="none" points="19.912,75.211 19.912,5.961 80.912,47.961 34.018,83.83 			"/>
			<path d="M34.019,86.83c-0.944,0-1.813-0.43-2.385-1.179c-1.003-1.314-0.75-3.2,0.562-4.204l43.611-33.36L22.912,11.668v63.542
				c0,1.654-1.346,3-3,3s-3-1.346-3-3V5.96c0-1.118,0.614-2.135,1.604-2.655c0.43-0.226,0.912-0.345,1.396-0.345
				c0.609,0,1.197,0.182,1.699,0.527l61.003,42.002c0.79,0.544,1.274,1.44,1.298,2.397c0.023,0.957-0.416,1.875-1.176,2.457
				L35.84,86.214C35.315,86.612,34.67,86.83,34.019,86.83z"/>
			<path d="M34.019,84.83c-0.301,0-0.599-0.135-0.795-0.393c-0.335-0.439-0.251-1.066,0.188-1.402L79.21,48.002L20.912,7.863v67.348
				c0,0.553-0.448,1-1,1s-1-0.447-1-1V5.96c0-0.372,0.206-0.712,0.535-0.885c0.329-0.173,0.726-0.148,1.032,0.062l61,42
				c0.264,0.182,0.425,0.479,0.433,0.799c0.008,0.32-0.139,0.625-0.393,0.819l-46.894,35.87C34.444,84.763,34.23,84.83,34.019,84.83
				z"/>
		</g>
		<path d="M19.912,97.039c-2.108,0-3.824-1.715-3.824-3.823s1.715-3.824,3.824-3.824c2.109,0,3.824,1.716,3.824,3.824
			S22.021,97.039,19.912,97.039z"/>
		<circle cx="19.912" cy="93.215" r="1.824"/>
	</g>
</g>
</svg>
